<svg id="Layer_1" data-name="Layer 1" xmlns="http://www.w3.org/2000/svg" viewBox="0 0 1385.45 140.72"><defs><style>.cls-1{fill:#fff;}</style></defs><path class="cls-1" d="M30.18,30.08H55.86l17,31.54L87.11,30.08h27.25L151.46,138,107.32,166.8l-20.8-58.69L73.73,126.56,60.06,109.67,44.82,169.82,0,145.8Z" transform="translate(0 -29.49)"/><path class="cls-1" d="M259.67,30l-4.59,39.75L196,75.2,197.85,88l41-1.27-3.13,26.85-35.25,2.84L202,131.64l58.6-3.81-6,38.77q-.3,1.86-93.46,3.61l-13-131.93Z" transform="translate(0 -29.49)"/><path class="cls-1" d="M369.82,30l-4.59,39.75L306.15,75.2,308,88l41-1.27-3.12,26.85-35.26,2.84,1.47,15.23,58.59-3.81-5.95,38.77q-.3,1.86-93.46,3.61l-13-131.93Z" transform="translate(0 -29.49)"/><path class="cls-1" d="M468.55,29.49q4.4,23.25,7,41.51-18.46-.78-33.7-.79,1.67,57.63,0,99.61H405.76q-3.12-25.18-2.34-84.66l-.2-14.65Q386,70.51,367.38,72q2.64-25.77,6.25-41.7Q413.58,29.49,468.55,29.49Z" transform="translate(0 -29.49)"/><path class="cls-1" d="M622.66,29.49q4.4,23.25,7,41.51-18.47-.78-33.69-.79,1.65,57.63,0,99.61H559.86q-3.12-25.18-2.34-84.66l-.2-14.65q-17.18,0-35.84,1.46,2.64-25.77,6.25-41.7Q567.67,29.49,622.66,29.49Z" transform="translate(0 -29.49)"/><path class="cls-1" d="M701.46,33.3,738,41.7,746.78,153l-39.85,15.62L705.37,130H668.75l-2.44,39.45-39.26-14.25,8.5-115.24,38.57-9.18-2.24,59h30.76Z" transform="translate(0 -29.49)"/><path class="cls-1" d="M857.52,30l-4.59,39.75L793.85,75.2,795.7,88l41-1.27-3.13,26.85-35.25,2.84,1.46,15.23,58.6-3.81-6,38.77q-.29,1.86-93.46,3.61L746,38.28Z" transform="translate(0 -29.49)"/><path class="cls-1" d="M1005.86,29.49q4.39,23.25,7,41.51-18.45-.78-33.69-.79,1.66,57.63,0,99.61H943.07q-3.14-25.18-2.35-84.66l-.19-14.65q-17.19,0-35.84,1.46,2.64-25.77,6.25-41.7Q950.87,29.49,1005.86,29.49Z" transform="translate(0 -29.49)"/><path class="cls-1" d="M1121.78,30l-4.59,39.75-59.08,5.47L1060,88l41-1.27-3.13,26.85-35.25,2.84,1.46,15.23,58.6-3.81-6,38.77q-.3,1.86-93.46,3.61l-13-131.93Z" transform="translate(0 -29.49)"/><path class="cls-1" d="M1158.4,30h39.74L1239,146.58l-40.52,23.63-5.57-19.33h-31.44l-7.62,18.55-38.09-18.94Zm10.15,95.12,22-.78-7.42-24.81h-6.06Z" transform="translate(0 -29.49)"/><path class="cls-1" d="M1264.16,30.08h25.68l17,31.54,14.25-31.54h27.25L1385.45,138l-44.14,28.81-20.8-58.69-12.8,18.45L1294,109.67l-15.23,60.15-44.83-24Z" transform="translate(0 -29.49)"/></svg>