<svg id="Layer_1" data-name="Layer 1" xmlns="http://www.w3.org/2000/svg" viewBox="0 0 569.2 143.12"><defs><style>.cls-1{fill:#fff;}</style></defs><path class="cls-1" d="M115.23,30Q101.85,163.87,99.41,170.21h-26L41.8,114.75l-5.67,55.46H1Q.59,117.77,6.05,35.35H40.14L62.5,79.69,75.49,33Z" transform="translate(-0.95 -29.96)"/><path class="cls-1" d="M182.42,30q34.38.78,48.05,30.66a72.48,72.48,0,0,1,3.32,26.47q0,33.8-24,63.67-19.44,19-49.61,19Q125,167,114.45,131.35a94.27,94.27,0,0,1-3.12-26.08q4-52.92,48.73-71.48A73,73,0,0,1,182.42,30ZM150.2,108.59q2.15,19.05,17.38,19,14,0,28.12-19.93,4.7-8.68,4.1-21.48,0-19-16.5-19-17.09,0-30.66,24.9A39.64,39.64,0,0,0,150.2,108.59Z" transform="translate(-0.95 -29.96)"/><path class="cls-1" d="M307.71,32.81Q350.79,47,355.18,83.3a64.89,64.89,0,0,1-2.06,23q-7.22,32.52-49.21,56.74-27.54,10.74-53.42,10.06L230.57,39Q267.27,24.91,307.71,32.81Zm-24.9,34.48L289.55,129q22.26-9.57,27.54-33.39,2.64-15.83-10.74-24.91Q293.75,64.55,282.81,67.29Z" transform="translate(-0.95 -29.96)"/><path class="cls-1" d="M464.75,30l-4.59,39.75L401.07,75.2,402.93,88l41-1.27-3.13,26.85-35.25,2.84L407,131.64l58.59-3.81-5.95,38.77q-.3,1.86-93.46,3.61l-13-131.93Z" transform="translate(-0.95 -29.96)"/><path class="cls-1" d="M564.84,48.73l-17,31.06q-47.75-21-46.78-5.77Q504,80.77,521,85.16q50.38,20.79,49.12,49.51.48,18.36-22.46,30.17-9.18,4.78-29.11,6.16-23,.67-52.34-16.61l13.48-29.88q44.63,18.08,44.43,5.18-1.67-6.25-38.28-20.9-23.64-13-23.24-36.52-2.06-24.12,28.81-39.56Q528.42,23,564.84,48.73Z" transform="translate(-0.95 -29.96)"/></svg>