<svg id="Layer_1" data-name="Layer 1" xmlns="http://www.w3.org/2000/svg" viewBox="0 0 853.41 143.12"><path d="M347.43,322.62q28.71,1.86,44.92,27.54a34.51,34.51,0,0,1,2.44,15.62q-.87,17.78-23.73,33.79,4.11,3.62,32.13,39.94l-32.91,21.88-31.83-45.7,1.95,40-42.58,5.85L277.61,330.33q12-4.18,59.66-8.2Zm-14.26,39.06,1.57,14.85q22.93-1.86,23.34-9.48.29-4.79-6.16-5.95A86.1,86.1,0,0,0,333.17,361.68Z" transform="translate(-277.61 -321.73)"/><path d="M469.5,321.74q34.38.78,48,30.67a72.4,72.4,0,0,1,3.32,26.46q0,33.79-24,63.67-19.44,19.05-49.61,19-35.16-2.82-45.71-38.47A94.27,94.27,0,0,1,398.41,397q4-52.92,48.73-71.48A72.9,72.9,0,0,1,469.5,321.74Zm-32.23,78.61q2.16,19,17.39,19,14,0,28.12-19.92,4.7-8.7,4.1-21.49,0-19-16.5-19-17.08,0-30.66,24.9A39.81,39.81,0,0,0,437.27,400.35Z" transform="translate(-277.61 -321.73)"/><path d="M556.69,322h39.78l40.86,116.7-40.56,23.65L591.19,443H559.72l-7.62,18.57-38.12-19Zm10.18,94.59,22-.79L581.42,391h-6.06Z" transform="translate(-277.61 -321.73)"/><path d="M709.35,324.57q43.06,14.16,47.46,50.49a65.11,65.11,0,0,1-2,22.95q-7.23,32.52-49.22,56.74Q678,465.49,652.12,464.81L632.2,330.73Q668.92,316.66,709.35,324.57Zm-24.91,34.48,6.74,61.71q22.27-9.57,27.54-33.39,2.64-15.83-10.74-24.91Q695.38,356.31,684.44,359.05Z" transform="translate(-277.61 -321.73)"/><path d="M784.05,322h25.69l17,31.54L841,322h27.24l37.11,107.91L861.2,458.72,840.4,400l-12.79,18.45-13.67-16.89L798.7,461.75l-44.82-24Z" transform="translate(-277.61 -321.73)"/><path d="M940,322h39.78l40.86,116.7-40.56,23.65L974.5,443H943l-7.62,18.57-38.12-19Zm10.18,94.59,22-.79L964.72,391h-6.06Z" transform="translate(-277.61 -321.73)"/><path d="M1086.49,322.91q30.48,4.39,42.88,30.86a30.82,30.82,0,0,1,1.26,15.14q-3.51,24.81-35.64,35.55-13.66,3.51-23.73,3.32l2.34,50-43.84,4.78L1014.62,327.7Q1067.15,320.19,1086.49,322.91Zm-18.94,38.77,1.17,15.33q23.73-2,24.61-8.39t-7-8.7A44.55,44.55,0,0,0,1067.55,361.68Z" transform="translate(-277.61 -321.73)"/></svg>